<mxfile host="app.diagrams.net" modified="2023-12-06T16:04:37.667Z" agent="Mozilla/5.0 (Windows NT 10.0; Win64; x64) AppleWebKit/537.36 (KHTML, like Gecko) Chrome/119.0.0.0 Safari/537.36 Edg/119.0.0.0" etag="VCWYQdL-huJQXAmtvehM" version="22.1.5" type="device">
  <diagram name="PÃ¡gina-1" id="EHT_aglO2U1MHOR7IKIn">
    <mxGraphModel dx="3691" dy="2290" grid="1" gridSize="10" guides="1" tooltips="1" connect="1" arrows="1" fold="1" page="1" pageScale="1" pageWidth="827" pageHeight="1169" math="0" shadow="0">
      <root>
        <mxCell id="0" />
        <mxCell id="1" parent="0" />
        <mxCell id="vcf6kk9Mx6y_zau_NbMi-1" value="" style="group" connectable="0" vertex="1" parent="1">
          <mxGeometry x="-650" y="-991" width="1347" height="1755" as="geometry" />
        </mxCell>
        <mxCell id="vcf6kk9Mx6y_zau_NbMi-243" style="edgeStyle=orthogonalEdgeStyle;rounded=0;orthogonalLoop=1;jettySize=auto;html=1;exitX=1;exitY=0.5;exitDx=0;exitDy=0;" edge="1" parent="vcf6kk9Mx6y_zau_NbMi-1" source="vcf6kk9Mx6y_zau_NbMi-5" target="vcf6kk9Mx6y_zau_NbMi-118">
          <mxGeometry relative="1" as="geometry" />
        </mxCell>
        <mxCell id="vcf6kk9Mx6y_zau_NbMi-5" value="City" style="rounded=0;whiteSpace=wrap;html=1;" vertex="1" parent="vcf6kk9Mx6y_zau_NbMi-1">
          <mxGeometry x="235" y="-10" width="120" height="60" as="geometry" />
        </mxCell>
        <mxCell id="vcf6kk9Mx6y_zau_NbMi-241" style="edgeStyle=orthogonalEdgeStyle;rounded=0;orthogonalLoop=1;jettySize=auto;html=1;exitX=1;exitY=0.5;exitDx=0;exitDy=0;" edge="1" parent="vcf6kk9Mx6y_zau_NbMi-1" source="vcf6kk9Mx6y_zau_NbMi-6" target="vcf6kk9Mx6y_zau_NbMi-5">
          <mxGeometry relative="1" as="geometry" />
        </mxCell>
        <mxCell id="vcf6kk9Mx6y_zau_NbMi-6" value="State" style="rounded=0;whiteSpace=wrap;html=1;" vertex="1" parent="vcf6kk9Mx6y_zau_NbMi-1">
          <mxGeometry x="-73" y="-10" width="120" height="60" as="geometry" />
        </mxCell>
        <mxCell id="vcf6kk9Mx6y_zau_NbMi-44" value="1:M" style="text;html=1;strokeColor=none;fillColor=none;align=center;verticalAlign=middle;whiteSpace=wrap;rounded=0;" vertex="1" parent="vcf6kk9Mx6y_zau_NbMi-1">
          <mxGeometry x="-218" y="10" width="30" height="10" as="geometry" />
        </mxCell>
        <mxCell id="vcf6kk9Mx6y_zau_NbMi-46" value="1:M" style="text;html=1;strokeColor=none;fillColor=none;align=center;verticalAlign=middle;whiteSpace=wrap;rounded=0;rotation=0;" vertex="1" parent="vcf6kk9Mx6y_zau_NbMi-1">
          <mxGeometry x="77" y="10" width="32" height="10" as="geometry" />
        </mxCell>
        <mxCell id="vcf6kk9Mx6y_zau_NbMi-239" style="edgeStyle=orthogonalEdgeStyle;rounded=0;orthogonalLoop=1;jettySize=auto;html=1;entryX=0;entryY=0.5;entryDx=0;entryDy=0;" edge="1" parent="vcf6kk9Mx6y_zau_NbMi-1" source="vcf6kk9Mx6y_zau_NbMi-7" target="vcf6kk9Mx6y_zau_NbMi-6">
          <mxGeometry relative="1" as="geometry" />
        </mxCell>
        <mxCell id="vcf6kk9Mx6y_zau_NbMi-7" value="Country" style="rounded=0;whiteSpace=wrap;html=1;" vertex="1" parent="vcf6kk9Mx6y_zau_NbMi-1">
          <mxGeometry x="-369" y="-10" width="126" height="60" as="geometry" />
        </mxCell>
        <mxCell id="vcf6kk9Mx6y_zau_NbMi-244" style="edgeStyle=orthogonalEdgeStyle;rounded=0;orthogonalLoop=1;jettySize=auto;html=1;exitX=1;exitY=0.5;exitDx=0;exitDy=0;entryX=0;entryY=0.5;entryDx=0;entryDy=0;" edge="1" parent="vcf6kk9Mx6y_zau_NbMi-1" source="vcf6kk9Mx6y_zau_NbMi-118" target="vcf6kk9Mx6y_zau_NbMi-122">
          <mxGeometry relative="1" as="geometry" />
        </mxCell>
        <mxCell id="vcf6kk9Mx6y_zau_NbMi-118" value="District" style="rounded=0;whiteSpace=wrap;html=1;" vertex="1" parent="vcf6kk9Mx6y_zau_NbMi-1">
          <mxGeometry x="540" y="-10" width="120" height="60" as="geometry" />
        </mxCell>
        <mxCell id="vcf6kk9Mx6y_zau_NbMi-120" value="1:M" style="text;html=1;strokeColor=none;fillColor=none;align=center;verticalAlign=middle;whiteSpace=wrap;rounded=0;rotation=0;" vertex="1" parent="vcf6kk9Mx6y_zau_NbMi-1">
          <mxGeometry x="382" y="10" width="32" height="10" as="geometry" />
        </mxCell>
        <mxCell id="vcf6kk9Mx6y_zau_NbMi-245" style="edgeStyle=orthogonalEdgeStyle;rounded=0;orthogonalLoop=1;jettySize=auto;html=1;exitX=1;exitY=0.5;exitDx=0;exitDy=0;" edge="1" parent="vcf6kk9Mx6y_zau_NbMi-1" source="vcf6kk9Mx6y_zau_NbMi-122" target="vcf6kk9Mx6y_zau_NbMi-128">
          <mxGeometry relative="1" as="geometry" />
        </mxCell>
        <mxCell id="vcf6kk9Mx6y_zau_NbMi-122" value="Address" style="rounded=0;whiteSpace=wrap;html=1;" vertex="1" parent="vcf6kk9Mx6y_zau_NbMi-1">
          <mxGeometry x="845" y="-10" width="120" height="60" as="geometry" />
        </mxCell>
        <mxCell id="vcf6kk9Mx6y_zau_NbMi-126" value="1:M" style="text;html=1;strokeColor=none;fillColor=none;align=center;verticalAlign=middle;whiteSpace=wrap;rounded=0;rotation=0;" vertex="1" parent="vcf6kk9Mx6y_zau_NbMi-1">
          <mxGeometry x="687" y="10" width="32" height="10" as="geometry" />
        </mxCell>
        <mxCell id="vcf6kk9Mx6y_zau_NbMi-128" value="Location" style="rounded=0;whiteSpace=wrap;html=1;" vertex="1" parent="vcf6kk9Mx6y_zau_NbMi-1">
          <mxGeometry x="1150" y="-10" width="120" height="60" as="geometry" />
        </mxCell>
        <mxCell id="vcf6kk9Mx6y_zau_NbMi-132" value="1:1" style="text;html=1;strokeColor=none;fillColor=none;align=center;verticalAlign=middle;whiteSpace=wrap;rounded=0;rotation=0;" vertex="1" parent="vcf6kk9Mx6y_zau_NbMi-1">
          <mxGeometry x="992" y="10" width="32" height="10" as="geometry" />
        </mxCell>
        <mxCell id="vcf6kk9Mx6y_zau_NbMi-135" value="Receptor" style="rounded=0;whiteSpace=wrap;html=1;" vertex="1" parent="vcf6kk9Mx6y_zau_NbMi-1">
          <mxGeometry x="697" y="110" width="120" height="60" as="geometry" />
        </mxCell>
        <mxCell id="vcf6kk9Mx6y_zau_NbMi-136" style="edgeStyle=orthogonalEdgeStyle;rounded=0;orthogonalLoop=1;jettySize=auto;html=1;exitX=0.25;exitY=1;exitDx=0;exitDy=0;entryX=1;entryY=0.5;entryDx=0;entryDy=0;" edge="1" parent="vcf6kk9Mx6y_zau_NbMi-1" source="vcf6kk9Mx6y_zau_NbMi-128" target="vcf6kk9Mx6y_zau_NbMi-135">
          <mxGeometry relative="1" as="geometry">
            <mxPoint x="1042" y="140" as="sourcePoint" />
          </mxGeometry>
        </mxCell>
        <mxCell id="vcf6kk9Mx6y_zau_NbMi-138" value="M:1" style="text;html=1;strokeColor=none;fillColor=none;align=center;verticalAlign=middle;whiteSpace=wrap;rounded=0;rotation=0;" vertex="1" parent="vcf6kk9Mx6y_zau_NbMi-1">
          <mxGeometry x="992" y="130" width="32" height="10" as="geometry" />
        </mxCell>
        <mxCell id="vcf6kk9Mx6y_zau_NbMi-139" value="Emitter" style="rounded=0;whiteSpace=wrap;html=1;" vertex="1" parent="vcf6kk9Mx6y_zau_NbMi-1">
          <mxGeometry x="761" y="220" width="120" height="60" as="geometry" />
        </mxCell>
        <mxCell id="vcf6kk9Mx6y_zau_NbMi-140" style="edgeStyle=orthogonalEdgeStyle;rounded=0;orthogonalLoop=1;jettySize=auto;html=1;exitX=0.5;exitY=1;exitDx=0;exitDy=0;entryX=1;entryY=0.5;entryDx=0;entryDy=0;" edge="1" parent="vcf6kk9Mx6y_zau_NbMi-1" source="vcf6kk9Mx6y_zau_NbMi-128" target="vcf6kk9Mx6y_zau_NbMi-139">
          <mxGeometry relative="1" as="geometry">
            <mxPoint x="1042" y="250" as="sourcePoint" />
          </mxGeometry>
        </mxCell>
        <mxCell id="vcf6kk9Mx6y_zau_NbMi-142" value="M:1" style="text;html=1;strokeColor=none;fillColor=none;align=center;verticalAlign=middle;whiteSpace=wrap;rounded=0;rotation=0;" vertex="1" parent="vcf6kk9Mx6y_zau_NbMi-1">
          <mxGeometry x="992" y="240" width="32" height="10" as="geometry" />
        </mxCell>
        <mxCell id="vcf6kk9Mx6y_zau_NbMi-250" style="edgeStyle=orthogonalEdgeStyle;rounded=0;orthogonalLoop=1;jettySize=auto;html=1;exitX=0;exitY=0.5;exitDx=0;exitDy=0;entryX=1;entryY=0.5;entryDx=0;entryDy=0;" edge="1" parent="vcf6kk9Mx6y_zau_NbMi-1" source="vcf6kk9Mx6y_zau_NbMi-143" target="vcf6kk9Mx6y_zau_NbMi-214">
          <mxGeometry relative="1" as="geometry" />
        </mxCell>
        <mxCell id="vcf6kk9Mx6y_zau_NbMi-251" style="edgeStyle=orthogonalEdgeStyle;rounded=0;orthogonalLoop=1;jettySize=auto;html=1;exitX=0;exitY=1;exitDx=0;exitDy=0;entryX=1;entryY=0.5;entryDx=0;entryDy=0;" edge="1" parent="vcf6kk9Mx6y_zau_NbMi-1" source="vcf6kk9Mx6y_zau_NbMi-143" target="vcf6kk9Mx6y_zau_NbMi-221">
          <mxGeometry relative="1" as="geometry" />
        </mxCell>
        <mxCell id="vcf6kk9Mx6y_zau_NbMi-143" value="Branch" style="rounded=0;whiteSpace=wrap;html=1;" vertex="1" parent="vcf6kk9Mx6y_zau_NbMi-1">
          <mxGeometry x="845" y="330" width="120" height="60" as="geometry" />
        </mxCell>
        <mxCell id="vcf6kk9Mx6y_zau_NbMi-144" style="edgeStyle=orthogonalEdgeStyle;rounded=0;orthogonalLoop=1;jettySize=auto;html=1;exitX=0.75;exitY=1;exitDx=0;exitDy=0;entryX=1;entryY=0.5;entryDx=0;entryDy=0;" edge="1" parent="vcf6kk9Mx6y_zau_NbMi-1" source="vcf6kk9Mx6y_zau_NbMi-128" target="vcf6kk9Mx6y_zau_NbMi-143">
          <mxGeometry relative="1" as="geometry">
            <mxPoint x="1042" y="360" as="sourcePoint" />
          </mxGeometry>
        </mxCell>
        <mxCell id="vcf6kk9Mx6y_zau_NbMi-146" value="1:1" style="text;html=1;strokeColor=none;fillColor=none;align=center;verticalAlign=middle;whiteSpace=wrap;rounded=0;rotation=0;" vertex="1" parent="vcf6kk9Mx6y_zau_NbMi-1">
          <mxGeometry x="992" y="350" width="32" height="10" as="geometry" />
        </mxCell>
        <mxCell id="vcf6kk9Mx6y_zau_NbMi-247" style="edgeStyle=orthogonalEdgeStyle;rounded=0;orthogonalLoop=1;jettySize=auto;html=1;exitX=1;exitY=1;exitDx=0;exitDy=0;entryX=0;entryY=1;entryDx=0;entryDy=0;" edge="1" parent="vcf6kk9Mx6y_zau_NbMi-1" source="vcf6kk9Mx6y_zau_NbMi-150" target="vcf6kk9Mx6y_zau_NbMi-135">
          <mxGeometry relative="1" as="geometry">
            <Array as="points">
              <mxPoint x="630" y="651" />
              <mxPoint x="697" y="651" />
            </Array>
          </mxGeometry>
        </mxCell>
        <mxCell id="vcf6kk9Mx6y_zau_NbMi-248" style="edgeStyle=orthogonalEdgeStyle;rounded=0;orthogonalLoop=1;jettySize=auto;html=1;exitX=0.5;exitY=1;exitDx=0;exitDy=0;entryX=0.25;entryY=1;entryDx=0;entryDy=0;" edge="1" parent="vcf6kk9Mx6y_zau_NbMi-1" source="vcf6kk9Mx6y_zau_NbMi-150" target="vcf6kk9Mx6y_zau_NbMi-139">
          <mxGeometry relative="1" as="geometry">
            <Array as="points">
              <mxPoint x="570" y="661" />
              <mxPoint x="791" y="661" />
            </Array>
          </mxGeometry>
        </mxCell>
        <mxCell id="vcf6kk9Mx6y_zau_NbMi-249" style="edgeStyle=orthogonalEdgeStyle;rounded=0;orthogonalLoop=1;jettySize=auto;html=1;exitX=0;exitY=1;exitDx=0;exitDy=0;entryX=0.5;entryY=1;entryDx=0;entryDy=0;" edge="1" parent="vcf6kk9Mx6y_zau_NbMi-1" source="vcf6kk9Mx6y_zau_NbMi-150" target="vcf6kk9Mx6y_zau_NbMi-143">
          <mxGeometry relative="1" as="geometry">
            <Array as="points">
              <mxPoint x="510" y="671" />
              <mxPoint x="905" y="671" />
            </Array>
          </mxGeometry>
        </mxCell>
        <mxCell id="vcf6kk9Mx6y_zau_NbMi-150" value="User" style="rounded=0;whiteSpace=wrap;html=1;" vertex="1" parent="vcf6kk9Mx6y_zau_NbMi-1">
          <mxGeometry x="510" y="546" width="120" height="60" as="geometry" />
        </mxCell>
        <mxCell id="vcf6kk9Mx6y_zau_NbMi-163" value="1:1" style="text;html=1;strokeColor=none;fillColor=none;align=center;verticalAlign=middle;whiteSpace=wrap;rounded=0;rotation=0;" vertex="1" parent="vcf6kk9Mx6y_zau_NbMi-1">
          <mxGeometry x="630" y="626" width="32" height="10" as="geometry" />
        </mxCell>
        <mxCell id="vcf6kk9Mx6y_zau_NbMi-165" value="1:1" style="text;html=1;strokeColor=none;fillColor=none;align=center;verticalAlign=middle;whiteSpace=wrap;rounded=0;rotation=0;" vertex="1" parent="vcf6kk9Mx6y_zau_NbMi-1">
          <mxGeometry x="568" y="626" width="32" height="10" as="geometry" />
        </mxCell>
        <mxCell id="vcf6kk9Mx6y_zau_NbMi-164" value="1:1" style="text;html=1;strokeColor=none;fillColor=none;align=center;verticalAlign=middle;whiteSpace=wrap;rounded=0;rotation=0;" vertex="1" parent="vcf6kk9Mx6y_zau_NbMi-1">
          <mxGeometry x="510" y="626" width="32" height="10" as="geometry" />
        </mxCell>
        <mxCell id="vcf6kk9Mx6y_zau_NbMi-167" style="edgeStyle=orthogonalEdgeStyle;rounded=0;orthogonalLoop=1;jettySize=auto;html=1;entryX=0;entryY=0.5;entryDx=0;entryDy=0;exitX=0.5;exitY=0;exitDx=0;exitDy=0;" edge="1" parent="vcf6kk9Mx6y_zau_NbMi-1" source="vcf6kk9Mx6y_zau_NbMi-170" target="vcf6kk9Mx6y_zau_NbMi-150">
          <mxGeometry relative="1" as="geometry">
            <mxPoint x="415" y="606" as="targetPoint" />
            <mxPoint x="415.99999999999955" y="656" as="sourcePoint" />
          </mxGeometry>
        </mxCell>
        <mxCell id="vcf6kk9Mx6y_zau_NbMi-169" value="1:1" style="text;html=1;strokeColor=none;fillColor=none;align=center;verticalAlign=middle;whiteSpace=wrap;rounded=0;rotation=0;" vertex="1" parent="vcf6kk9Mx6y_zau_NbMi-1">
          <mxGeometry x="415" y="626" width="32" height="10" as="geometry" />
        </mxCell>
        <mxCell id="vcf6kk9Mx6y_zau_NbMi-170" value="Rol" style="rounded=0;whiteSpace=wrap;html=1;" vertex="1" parent="vcf6kk9Mx6y_zau_NbMi-1">
          <mxGeometry x="356" y="796" width="120" height="60" as="geometry" />
        </mxCell>
        <mxCell id="vcf6kk9Mx6y_zau_NbMi-194" style="edgeStyle=orthogonalEdgeStyle;rounded=0;orthogonalLoop=1;jettySize=auto;html=1;exitX=0;exitY=0.75;exitDx=0;exitDy=0;entryX=1;entryY=1;entryDx=0;entryDy=0;" edge="1" parent="vcf6kk9Mx6y_zau_NbMi-1" source="vcf6kk9Mx6y_zau_NbMi-178" target="vcf6kk9Mx6y_zau_NbMi-192">
          <mxGeometry relative="1" as="geometry">
            <mxPoint x="210" y="736" as="targetPoint" />
            <Array as="points">
              <mxPoint x="301" y="265" />
              <mxPoint x="301" y="641" />
              <mxPoint x="210" y="641" />
            </Array>
          </mxGeometry>
        </mxCell>
        <mxCell id="vcf6kk9Mx6y_zau_NbMi-235" style="edgeStyle=orthogonalEdgeStyle;rounded=0;orthogonalLoop=1;jettySize=auto;html=1;exitX=0.5;exitY=1;exitDx=0;exitDy=0;entryX=0.5;entryY=1;entryDx=0;entryDy=0;" edge="1" parent="vcf6kk9Mx6y_zau_NbMi-1" source="vcf6kk9Mx6y_zau_NbMi-178" target="vcf6kk9Mx6y_zau_NbMi-221">
          <mxGeometry relative="1" as="geometry">
            <Array as="points">
              <mxPoint x="452" y="311" />
              <mxPoint x="260" y="311" />
              <mxPoint x="260" y="512" />
              <mxPoint x="452" y="512" />
            </Array>
          </mxGeometry>
        </mxCell>
        <mxCell id="vcf6kk9Mx6y_zau_NbMi-178" value="Package" style="rounded=0;whiteSpace=wrap;html=1;" vertex="1" parent="vcf6kk9Mx6y_zau_NbMi-1">
          <mxGeometry x="392" y="220" width="120" height="60" as="geometry" />
        </mxCell>
        <mxCell id="vcf6kk9Mx6y_zau_NbMi-181" style="edgeStyle=orthogonalEdgeStyle;rounded=0;orthogonalLoop=1;jettySize=auto;html=1;exitX=1;exitY=0.5;exitDx=0;exitDy=0;entryX=0;entryY=0.5;entryDx=0;entryDy=0;" edge="1" parent="vcf6kk9Mx6y_zau_NbMi-1" source="vcf6kk9Mx6y_zau_NbMi-178" target="vcf6kk9Mx6y_zau_NbMi-139">
          <mxGeometry relative="1" as="geometry">
            <mxPoint x="630" y="250" as="sourcePoint" />
            <mxPoint x="694" y="245" as="targetPoint" />
          </mxGeometry>
        </mxCell>
        <mxCell id="vcf6kk9Mx6y_zau_NbMi-180" value="M:1" style="text;html=1;strokeColor=none;fillColor=none;align=center;verticalAlign=middle;whiteSpace=wrap;rounded=0;rotation=0;" vertex="1" parent="vcf6kk9Mx6y_zau_NbMi-1">
          <mxGeometry x="646" y="240" width="32" height="10" as="geometry" />
        </mxCell>
        <mxCell id="vcf6kk9Mx6y_zau_NbMi-182" value="Package Type" style="rounded=0;whiteSpace=wrap;html=1;" vertex="1" parent="vcf6kk9Mx6y_zau_NbMi-1">
          <mxGeometry x="90" y="220" width="120" height="60" as="geometry" />
        </mxCell>
        <mxCell id="vcf6kk9Mx6y_zau_NbMi-186" style="edgeStyle=orthogonalEdgeStyle;rounded=0;orthogonalLoop=1;jettySize=auto;html=1;exitX=1;exitY=0.5;exitDx=0;exitDy=0;" edge="1" parent="vcf6kk9Mx6y_zau_NbMi-1" source="vcf6kk9Mx6y_zau_NbMi-182" target="vcf6kk9Mx6y_zau_NbMi-178">
          <mxGeometry relative="1" as="geometry">
            <mxPoint x="328" y="250" as="sourcePoint" />
          </mxGeometry>
        </mxCell>
        <mxCell id="vcf6kk9Mx6y_zau_NbMi-185" value="1:1" style="text;html=1;strokeColor=none;fillColor=none;align=center;verticalAlign=middle;whiteSpace=wrap;rounded=0;rotation=0;" vertex="1" parent="vcf6kk9Mx6y_zau_NbMi-1">
          <mxGeometry x="344" y="240" width="32" height="10" as="geometry" />
        </mxCell>
        <mxCell id="vcf6kk9Mx6y_zau_NbMi-189" style="edgeStyle=orthogonalEdgeStyle;rounded=0;orthogonalLoop=1;jettySize=auto;html=1;exitX=0.5;exitY=0;exitDx=0;exitDy=0;entryX=0;entryY=0.5;entryDx=0;entryDy=0;" edge="1" parent="vcf6kk9Mx6y_zau_NbMi-1" source="vcf6kk9Mx6y_zau_NbMi-178" target="vcf6kk9Mx6y_zau_NbMi-135">
          <mxGeometry relative="1" as="geometry">
            <mxPoint x="639" y="139.99999999999977" as="sourcePoint" />
          </mxGeometry>
        </mxCell>
        <mxCell id="vcf6kk9Mx6y_zau_NbMi-188" value="M:1" style="text;html=1;strokeColor=none;fillColor=none;align=center;verticalAlign=middle;whiteSpace=wrap;rounded=0;rotation=0;" vertex="1" parent="vcf6kk9Mx6y_zau_NbMi-1">
          <mxGeometry x="655" y="130" width="32" height="10" as="geometry" />
        </mxCell>
        <mxCell id="vcf6kk9Mx6y_zau_NbMi-219" style="edgeStyle=orthogonalEdgeStyle;rounded=0;orthogonalLoop=1;jettySize=auto;html=1;entryX=0.208;entryY=1.032;entryDx=0;entryDy=0;exitX=0.5;exitY=0;exitDx=0;exitDy=0;entryPerimeter=0;" edge="1" parent="vcf6kk9Mx6y_zau_NbMi-1" source="vcf6kk9Mx6y_zau_NbMi-192" target="vcf6kk9Mx6y_zau_NbMi-143">
          <mxGeometry relative="1" as="geometry">
            <Array as="points">
              <mxPoint x="150" y="520" />
              <mxPoint x="870" y="520" />
            </Array>
          </mxGeometry>
        </mxCell>
        <mxCell id="vcf6kk9Mx6y_zau_NbMi-192" value="Order" style="rounded=0;whiteSpace=wrap;html=1;" vertex="1" parent="vcf6kk9Mx6y_zau_NbMi-1">
          <mxGeometry x="90" y="546" width="120" height="60" as="geometry" />
        </mxCell>
        <mxCell id="vcf6kk9Mx6y_zau_NbMi-196" value="1:M" style="text;html=1;strokeColor=none;fillColor=none;align=center;verticalAlign=middle;whiteSpace=wrap;rounded=0;rotation=0;" vertex="1" parent="vcf6kk9Mx6y_zau_NbMi-1">
          <mxGeometry x="210" y="626" width="32" height="10" as="geometry" />
        </mxCell>
        <mxCell id="vcf6kk9Mx6y_zau_NbMi-197" style="edgeStyle=orthogonalEdgeStyle;rounded=0;orthogonalLoop=1;jettySize=auto;html=1;exitX=0.5;exitY=0;exitDx=0;exitDy=0;entryX=0;entryY=0.75;entryDx=0;entryDy=0;" edge="1" parent="vcf6kk9Mx6y_zau_NbMi-1" source="vcf6kk9Mx6y_zau_NbMi-201" target="vcf6kk9Mx6y_zau_NbMi-192">
          <mxGeometry relative="1" as="geometry">
            <mxPoint x="70" y="586" as="targetPoint" />
            <mxPoint x="-4.519999999999527" y="656" as="sourcePoint" />
            <Array as="points">
              <mxPoint x="-4" y="591" />
            </Array>
          </mxGeometry>
        </mxCell>
        <mxCell id="vcf6kk9Mx6y_zau_NbMi-199" value="1:M" style="text;html=1;strokeColor=none;fillColor=none;align=center;verticalAlign=middle;whiteSpace=wrap;rounded=0;rotation=0;" vertex="1" parent="vcf6kk9Mx6y_zau_NbMi-1">
          <mxGeometry x="-5.519999999999982" y="626" width="32" height="10" as="geometry" />
        </mxCell>
        <mxCell id="vcf6kk9Mx6y_zau_NbMi-201" value="Status Order" style="rounded=0;whiteSpace=wrap;html=1;" vertex="1" parent="vcf6kk9Mx6y_zau_NbMi-1">
          <mxGeometry x="-64.51999999999998" y="796" width="120" height="60" as="geometry" />
        </mxCell>
        <mxCell id="vcf6kk9Mx6y_zau_NbMi-233" style="edgeStyle=orthogonalEdgeStyle;rounded=0;orthogonalLoop=1;jettySize=auto;html=1;entryX=1;entryY=0.5;entryDx=0;entryDy=0;" edge="1" parent="vcf6kk9Mx6y_zau_NbMi-1" source="vcf6kk9Mx6y_zau_NbMi-214" target="vcf6kk9Mx6y_zau_NbMi-150">
          <mxGeometry relative="1" as="geometry">
            <Array as="points">
              <mxPoint x="452" y="411" />
              <mxPoint x="740" y="411" />
              <mxPoint x="740" y="576" />
            </Array>
          </mxGeometry>
        </mxCell>
        <mxCell id="vcf6kk9Mx6y_zau_NbMi-214" value="Distributor" style="rounded=0;whiteSpace=wrap;html=1;" vertex="1" parent="vcf6kk9Mx6y_zau_NbMi-1">
          <mxGeometry x="392" y="330" width="120" height="60" as="geometry" />
        </mxCell>
        <mxCell id="vcf6kk9Mx6y_zau_NbMi-217" value="M:1" style="text;html=1;strokeColor=none;fillColor=none;align=center;verticalAlign=middle;whiteSpace=wrap;rounded=0;rotation=0;" vertex="1" parent="vcf6kk9Mx6y_zau_NbMi-1">
          <mxGeometry x="646" y="350" width="32" height="10" as="geometry" />
        </mxCell>
        <mxCell id="vcf6kk9Mx6y_zau_NbMi-220" value="M:1" style="text;html=1;strokeColor=none;fillColor=none;align=center;verticalAlign=middle;whiteSpace=wrap;rounded=0;rotation=0;" vertex="1" parent="vcf6kk9Mx6y_zau_NbMi-1">
          <mxGeometry x="178" y="502" width="32" height="10" as="geometry" />
        </mxCell>
        <mxCell id="vcf6kk9Mx6y_zau_NbMi-221" value="Distribution" style="rounded=0;whiteSpace=wrap;html=1;" vertex="1" parent="vcf6kk9Mx6y_zau_NbMi-1">
          <mxGeometry x="392" y="432" width="120" height="60" as="geometry" />
        </mxCell>
        <mxCell id="vcf6kk9Mx6y_zau_NbMi-224" value="M:1" style="text;html=1;strokeColor=none;fillColor=none;align=center;verticalAlign=middle;whiteSpace=wrap;rounded=0;rotation=0;" vertex="1" parent="vcf6kk9Mx6y_zau_NbMi-1">
          <mxGeometry x="646" y="452" width="32" height="10" as="geometry" />
        </mxCell>
        <mxCell id="vcf6kk9Mx6y_zau_NbMi-229" value="M:1" style="text;html=1;strokeColor=none;fillColor=none;align=center;verticalAlign=middle;whiteSpace=wrap;rounded=0;rotation=0;" vertex="1" parent="vcf6kk9Mx6y_zau_NbMi-1">
          <mxGeometry x="357" y="350" width="32" height="10" as="geometry" />
        </mxCell>
        <mxCell id="vcf6kk9Mx6y_zau_NbMi-232" style="edgeStyle=orthogonalEdgeStyle;rounded=0;orthogonalLoop=1;jettySize=auto;html=1;exitX=0;exitY=0.5;exitDx=0;exitDy=0;entryX=0;entryY=0.5;entryDx=0;entryDy=0;" edge="1" parent="vcf6kk9Mx6y_zau_NbMi-1" source="vcf6kk9Mx6y_zau_NbMi-221" target="vcf6kk9Mx6y_zau_NbMi-214">
          <mxGeometry relative="1" as="geometry">
            <mxPoint x="364" y="368" as="sourcePoint" />
            <Array as="points">
              <mxPoint x="364" y="462" />
              <mxPoint x="364" y="360" />
            </Array>
          </mxGeometry>
        </mxCell>
        <mxCell id="vcf6kk9Mx6y_zau_NbMi-234" value="1:1" style="text;html=1;strokeColor=none;fillColor=none;align=center;verticalAlign=middle;whiteSpace=wrap;rounded=0;rotation=0;" vertex="1" parent="vcf6kk9Mx6y_zau_NbMi-1">
          <mxGeometry x="630" y="561" width="32" height="10" as="geometry" />
        </mxCell>
        <mxCell id="vcf6kk9Mx6y_zau_NbMi-236" value="M:1" style="text;html=1;strokeColor=none;fillColor=none;align=center;verticalAlign=middle;whiteSpace=wrap;rounded=0;rotation=0;" vertex="1" parent="vcf6kk9Mx6y_zau_NbMi-1">
          <mxGeometry x="414" y="502" width="32" height="10" as="geometry" />
        </mxCell>
        <mxCell id="vcf6kk9Mx6y_zau_NbMi-203" style="edgeStyle=orthogonalEdgeStyle;rounded=0;orthogonalLoop=1;jettySize=auto;html=1;exitX=0.5;exitY=0;exitDx=0;exitDy=0;entryX=0;entryY=0.5;entryDx=0;entryDy=0;" edge="1" parent="1" source="vcf6kk9Mx6y_zau_NbMi-207" target="vcf6kk9Mx6y_zau_NbMi-192">
          <mxGeometry relative="1" as="geometry">
            <mxPoint x="-705.48" y="-414" as="targetPoint" />
            <Array as="points">
              <mxPoint x="-800" y="-415" />
            </Array>
            <mxPoint x="-800" y="-334.0000000000002" as="sourcePoint" />
          </mxGeometry>
        </mxCell>
        <mxCell id="vcf6kk9Mx6y_zau_NbMi-205" value="1:M" style="text;html=1;strokeColor=none;fillColor=none;align=center;verticalAlign=middle;whiteSpace=wrap;rounded=0;rotation=0;" vertex="1" parent="1">
          <mxGeometry x="-801" y="-364" width="32" height="10" as="geometry" />
        </mxCell>
        <mxCell id="vcf6kk9Mx6y_zau_NbMi-207" value="Route" style="rounded=0;whiteSpace=wrap;html=1;" vertex="1" parent="1">
          <mxGeometry x="-860" y="-194" width="120" height="60" as="geometry" />
        </mxCell>
        <mxCell id="vcf6kk9Mx6y_zau_NbMi-213" style="edgeStyle=orthogonalEdgeStyle;rounded=0;orthogonalLoop=1;jettySize=auto;html=1;exitX=0.5;exitY=0;exitDx=0;exitDy=0;entryX=0;entryY=0.25;entryDx=0;entryDy=0;" edge="1" parent="1" source="vcf6kk9Mx6y_zau_NbMi-212" target="vcf6kk9Mx6y_zau_NbMi-192">
          <mxGeometry relative="1" as="geometry">
            <mxPoint x="-950" y="-334.0000000000002" as="sourcePoint" />
          </mxGeometry>
        </mxCell>
        <mxCell id="vcf6kk9Mx6y_zau_NbMi-210" value="1:M" style="text;html=1;strokeColor=none;fillColor=none;align=center;verticalAlign=middle;whiteSpace=wrap;rounded=0;rotation=0;" vertex="1" parent="1">
          <mxGeometry x="-951" y="-364" width="32" height="10" as="geometry" />
        </mxCell>
        <mxCell id="vcf6kk9Mx6y_zau_NbMi-237" style="edgeStyle=orthogonalEdgeStyle;rounded=0;orthogonalLoop=1;jettySize=auto;html=1;exitX=0;exitY=0.5;exitDx=0;exitDy=0;entryX=0;entryY=0.75;entryDx=0;entryDy=0;" edge="1" parent="1" source="vcf6kk9Mx6y_zau_NbMi-212" target="vcf6kk9Mx6y_zau_NbMi-221">
          <mxGeometry relative="1" as="geometry" />
        </mxCell>
        <mxCell id="vcf6kk9Mx6y_zau_NbMi-212" value="Tracking" style="rounded=0;whiteSpace=wrap;html=1;" vertex="1" parent="1">
          <mxGeometry x="-1010" y="-194" width="120" height="60" as="geometry" />
        </mxCell>
        <mxCell id="vcf6kk9Mx6y_zau_NbMi-238" value="1:1" style="text;html=1;strokeColor=none;fillColor=none;align=center;verticalAlign=middle;whiteSpace=wrap;rounded=0;rotation=0;" vertex="1" parent="1">
          <mxGeometry x="-1030" y="-530" width="32" height="10" as="geometry" />
        </mxCell>
      </root>
    </mxGraphModel>
  </diagram>
</mxfile>
